<svg width="64" height="64" viewBox="0 0 64 64" fill="none" xmlns="http://www.w3.org/2000/svg">
<g clip-path="url(#clip0_110_274)">
<path d="M63.0627 6.6048V47.4281C63.0627 49.5343 61.3546 51.2433 59.2494 51.2433H4.75112C2.64587 51.2433 0.937744 49.5344 0.937744 47.4281V6.6048C0.937744 4.49855 2.64587 2.78955 4.75112 2.78955H59.2495C61.3547 2.78955 63.0627 4.49843 63.0627 6.6048Z" fill="#E4EAF7"/>
<path d="M63.0628 6.6048V47.4281C63.0628 49.5343 61.3546 51.2433 59.2494 51.2433H51.5415C53.6468 51.2433 55.3549 49.5344 55.3549 47.4281V6.6048C55.3549 4.49855 53.6469 2.78955 51.5415 2.78955H59.2494C61.3548 2.78955 63.0628 4.49843 63.0628 6.6048Z" fill="#D2DCF0"/>
<path d="M0.93811 8.94554H12.3845C13.3556 8.94554 14.2767 8.51454 14.8992 7.76891L18.0739 3.96666C18.6965 3.22104 19.6175 2.79004 20.5886 2.79004H28.8275C29.8056 2.79004 30.7326 3.22716 31.3551 3.98204L34.4651 7.75354C35.0876 8.50841 36.0146 8.94554 36.9927 8.94554H63.062V16.7325H0.93811V8.94554Z" fill="#BEC8DC"/>
<path d="M63.0615 8.9458H55.3549V16.7323H63.0615V8.9458Z" fill="#AFBBD0"/>
<path d="M63.0627 16.7324V47.4279C63.0627 49.5342 61.3546 51.2432 59.2494 51.2432H32.0004V16.7324H63.0627Z" fill="#FF8D95"/>
<path d="M63.0628 16.7324V47.4279C63.0628 49.5342 61.3546 51.2432 59.2494 51.2432H51.5415C53.6468 51.2432 55.3549 49.5343 55.3549 47.4279V16.7324H63.0628Z" fill="#FF6469"/>
<path d="M57.2374 29.9668H32V21.0811H57.2374C57.5657 21.0811 57.832 21.3473 57.832 21.6757V29.3722C57.832 29.7006 57.5657 29.9668 57.2374 29.9668Z" fill="white"/>
<path d="M57.8319 51.243H48.9506V34.677C48.9506 34.3859 49.1866 34.1499 49.4777 34.1499H57.3049C57.5961 34.1499 57.8321 34.3859 57.8321 34.677V51.243H57.8319Z" fill="#C3B4FA"/>
<path d="M44.1854 51.2434H32V34.1504H43.6584C43.9495 34.1504 44.1855 34.3864 44.1855 34.6775V51.2434H44.1854Z" fill="#FFCD74"/>
<path d="M36.7119 29.9668L41.4538 25.2225C41.5915 25.0847 41.8149 25.0847 41.9527 25.2225L46.6712 29.9433L36.7119 29.9668Z" fill="#3879E3"/>
<path d="M41.6915 29.9668L46.4334 25.2225C46.5712 25.0847 46.7945 25.0847 46.9323 25.2225L51.6508 29.9433L41.6915 29.9668Z" fill="#3879E3"/>
<path d="M50.4091 61.2109H13.591C12.3488 61.2109 11.3418 60.2039 11.3418 58.9617V45.4499C11.3418 44.2077 12.3488 43.2007 13.591 43.2007H50.4092C51.6514 43.2007 52.6584 44.2077 52.6584 45.4499V58.9616C52.6584 60.2039 51.6514 61.2109 50.4091 61.2109Z" fill="#B4E173"/>
<path d="M50.4097 43.2007H46.6965C47.9385 43.2007 48.9453 44.2079 48.9453 45.4506V58.9611C48.9453 60.2037 47.9385 61.2109 46.6965 61.2109H50.4097C51.6517 61.2109 52.6584 60.2037 52.6584 58.9611V45.4506C52.6584 44.2079 51.6515 43.2007 50.4097 43.2007Z" fill="#A7D16C"/>
<path d="M59.2487 1.85156H4.75125C2.13137 1.85156 0 3.98406 0 6.60531V39.9587C0 40.4766 0.41975 40.8962 0.9375 40.8962C1.45525 40.8962 1.875 40.4766 1.875 39.9587V17.6699H21.625C22.1428 17.6699 22.5625 17.2503 22.5625 16.7324C22.5625 16.2146 22.1428 15.7949 21.625 15.7949H1.875V9.88294H12.3844C13.6369 9.88294 14.8157 9.33144 15.6189 8.36969L18.7935 4.56744C19.2391 4.03356 19.8934 3.72744 20.5886 3.72744H28.8275C29.5281 3.72744 30.1859 4.03756 30.6318 4.57844L33.7417 8.35006C34.5452 9.32431 35.7301 9.88306 36.9926 9.88306H62.125V15.7951H26.1875C25.6697 15.7951 25.25 16.2147 25.25 16.7326C25.25 17.2504 25.6697 17.6701 26.1875 17.6701H31.0625V20.9984V29.8843V34.1504V42.2634H15.9228H13.5909H7.17662C6.65887 42.2634 6.23912 42.6831 6.23912 43.2009C6.23912 43.7188 6.65887 44.1384 7.17662 44.1384H10.6877C10.5061 44.5388 10.4041 44.9827 10.4041 45.4502V45.9637H5.2955C4.77775 45.9637 4.358 46.3833 4.358 46.9012C4.358 47.4191 4.77775 47.8387 5.2955 47.8387H10.4041V50.3053H4.75125C3.16525 50.3053 1.875 49.0144 1.875 47.4277V44.5434C1.875 44.0256 1.45525 43.6059 0.9375 43.6059C0.41975 43.6059 0 44.0256 0 44.5434V47.4277C0 50.0483 2.13137 52.1803 4.75125 52.1803H10.4041V58.9617C10.4041 60.7189 11.8337 62.1486 13.591 62.1486H50.4091C52.1664 62.1486 53.596 60.7188 53.596 58.9617V52.1803H57.8326H59.2489C61.8686 52.1803 64.0001 50.0483 64.0001 47.4277V6.60531C64 3.98406 61.8686 1.85156 59.2487 1.85156ZM14.1796 7.16794C13.7339 7.70181 13.0795 8.00806 12.3844 8.00806H1.875V6.60531C1.875 5.01794 3.16525 3.72656 4.75125 3.72656H17.053L14.1796 7.16794ZM36.9926 8.00794C36.292 8.00794 35.6344 7.69781 35.1884 7.15694L32.3595 3.72644H59.2487C60.8347 3.72644 62.125 5.01781 62.125 6.60519V8.00794H36.9926ZM41.3196 28.9467H38.9901L41.7034 26.2328L42.8675 27.3981L41.3196 28.9467ZM43.9706 28.9467L46.6829 26.2332L49.3936 28.9451L48.7209 28.9467H43.9706ZM52.0461 28.9467L47.346 24.2443C47.1701 24.0684 46.9316 23.9696 46.6829 23.9696C46.4341 23.9696 46.1956 24.0684 46.0197 24.2443L44.193 26.0719L42.3669 24.2439C42.1911 24.0681 41.9526 23.9691 41.7039 23.9691H41.7038C41.4551 23.9691 41.2166 24.0678 41.0407 24.2437L36.339 28.9467H32.9375V21.9358H56.8945V28.9467H52.0461ZM32.9375 35.0878H43.2475V42.2633H32.9375V35.0878ZM53.5959 50.3053V49.8441C53.5959 49.3262 53.1761 48.9066 52.6584 48.9066C52.1406 48.9066 51.7209 49.3262 51.7209 49.8441V58.9617C51.7209 59.6851 51.1324 60.2736 50.409 60.2736H13.591C12.8676 60.2736 12.2791 59.6851 12.2791 58.9617V45.4502C12.2791 44.7269 12.8676 44.1384 13.591 44.1384H15.9229H50.4091C51.1325 44.1384 51.721 44.7269 51.721 45.4502V46.2503C51.721 46.7682 52.1408 47.1878 52.6585 47.1878C53.1763 47.1878 53.596 46.7682 53.596 46.2503V45.4502C53.596 43.6929 52.1664 42.2634 50.4091 42.2634H49.8875V35.0879H56.895V50.3054H53.5959V50.3053ZM59.2487 50.3053H58.77V34.1503C58.77 33.6324 58.3503 33.2128 57.8325 33.2128H48.95C48.4323 33.2128 48.0125 33.6324 48.0125 34.1503V42.2633H45.1225V34.1503C45.1225 33.6324 44.7028 33.2128 44.185 33.2128H32.9375V30.8217H36.5465C36.6004 30.8313 36.6553 30.8378 36.7113 30.8378C36.7119 30.8378 36.7126 30.8378 36.7134 30.8378L41.5476 30.8269C41.5948 30.8342 41.6428 30.8383 41.6915 30.8383C41.6923 30.8383 41.693 30.8383 41.6937 30.8383L48.7482 30.8217H57.832C58.3498 30.8217 58.7695 30.4021 58.7695 29.8842V20.9983C58.7695 20.4804 58.3498 20.0608 57.832 20.0608H32.9375V17.6699H62.125V47.4278C62.125 49.0144 60.8347 50.3053 59.2487 50.3053Z" fill="black"/>
<path d="M5.04966 6.98897C5.57558 6.98897 6.00191 6.56264 6.00191 6.03672C6.00191 5.51081 5.57558 5.08447 5.04966 5.08447C4.52375 5.08447 4.09741 5.51081 4.09741 6.03672C4.09741 6.56264 4.52375 6.98897 5.04966 6.98897Z" fill="black"/>
<path d="M8.11363 6.98897C8.63954 6.98897 9.06588 6.56264 9.06588 6.03672C9.06588 5.51081 8.63954 5.08447 8.11363 5.08447C7.58771 5.08447 7.16138 5.51081 7.16138 6.03672C7.16138 6.56264 7.58771 6.98897 8.11363 6.98897Z" fill="black"/>
<path d="M11.6327 6.98897C12.1586 6.98897 12.5849 6.56264 12.5849 6.03672C12.5849 5.51081 12.1586 5.08447 11.6327 5.08447C11.1068 5.08447 10.6804 5.51081 10.6804 6.03672C10.6804 6.56264 11.1068 6.98897 11.6327 6.98897Z" fill="black"/>
<path d="M55.7302 13.8483C56.2558 13.8483 56.6819 13.4222 56.6819 12.8966C56.6819 12.3709 56.2558 11.9448 55.7302 11.9448C55.2046 11.9448 54.7784 12.3709 54.7784 12.8966C54.7784 13.4222 55.2046 13.8483 55.7302 13.8483Z" fill="black"/>
<path d="M59.5372 13.8483C60.0628 13.8483 60.4889 13.4222 60.4889 12.8966C60.4889 12.3709 60.0628 11.9448 59.5372 11.9448C59.0116 11.9448 58.5854 12.3709 58.5854 12.8966C58.5854 13.4222 59.0116 13.8483 59.5372 13.8483Z" fill="black"/>
<path d="M12.1047 12.8965C12.1047 13.4144 12.5245 13.834 13.0422 13.834H44.1854C44.7031 13.834 45.1229 13.4144 45.1229 12.8965C45.1229 12.3786 44.7031 11.959 44.1854 11.959H13.0422C12.5245 11.959 12.1047 12.3786 12.1047 12.8965Z" fill="black"/>
<path d="M28.3177 7.68213C28.8355 7.68213 29.2552 7.2625 29.2552 6.74463C29.2552 6.22675 28.8355 5.80713 28.3177 5.80713H21.1216C20.6038 5.80713 20.1841 6.22675 20.1841 6.74463C20.1841 7.2625 20.6038 7.68213 21.1216 7.68213H28.3177Z" fill="black"/>
<path d="M5.9694 11.528C5.60315 11.1618 5.00952 11.1619 4.64365 11.5284L3.91127 12.261C3.73102 12.4411 3.63202 12.687 3.63702 12.9419C3.64202 13.1966 3.7504 13.4385 3.9374 13.6116L4.66977 14.2896C4.85015 14.4566 5.07865 14.5391 5.3064 14.5391C5.55852 14.5391 5.8099 14.438 5.99465 14.2385C6.34627 13.8586 6.32352 13.2655 5.94352 12.9136L5.92602 12.8974L5.96965 12.8536C6.33577 12.4876 6.33565 11.894 5.9694 11.528Z" fill="black"/>
<path d="M7.6459 14.2385C7.83065 14.438 8.08202 14.539 8.33402 14.539C8.5619 14.539 8.79027 14.4565 8.97065 14.2895L9.7029 13.6115C9.8899 13.4383 9.9984 13.1965 10.0033 12.9418C10.0083 12.6869 9.90927 12.441 9.72902 12.2609L8.99677 11.5283C8.63065 11.1619 8.03702 11.1618 7.67102 11.5279C7.30477 11.894 7.30465 12.4875 7.67065 12.8537L7.7144 12.8974L7.6969 12.9137C7.31702 13.2654 7.29427 13.8585 7.6459 14.2385Z" fill="black"/>
<path d="M9.41293 20.061H4.94043C4.42268 20.061 4.00293 20.4807 4.00293 20.9985C4.00293 21.5164 4.42268 21.936 4.94043 21.936H9.4128C9.93055 21.936 10.3503 21.5164 10.3503 20.9985C10.3503 20.4807 9.93068 20.061 9.41293 20.061Z" fill="black"/>
<path d="M17.4779 23.7612H7.17664C6.65889 23.7612 6.23914 24.1809 6.23914 24.6987C6.23914 25.2166 6.65889 25.6362 7.17664 25.6362H17.4779C17.9956 25.6362 18.4154 25.2166 18.4154 24.6987C18.4154 24.1809 17.9956 23.7612 17.4779 23.7612Z" fill="black"/>
<path d="M10.2839 27.4619H7.17664C6.65889 27.4619 6.23914 27.8815 6.23914 28.3994C6.23914 28.9173 6.65889 29.3369 7.17664 29.3369H10.2838C10.8015 29.3369 11.2213 28.9173 11.2213 28.3994C11.2213 27.8815 10.8016 27.4619 10.2839 27.4619Z" fill="black"/>
<path d="M21.0668 27.4619H13.4604C12.9427 27.4619 12.5229 27.8815 12.5229 28.3994C12.5229 28.9173 12.9427 29.3369 13.4604 29.3369H21.0668C21.5846 29.3369 22.0043 28.9173 22.0043 28.3994C22.0043 27.8815 21.5846 27.4619 21.0668 27.4619Z" fill="black"/>
<path d="M7.17664 40.438H15.0141C15.5319 40.438 15.9516 40.0184 15.9516 39.5005C15.9516 38.9826 15.5319 38.563 15.0141 38.563H7.17664C6.65889 38.563 6.23914 38.9826 6.23914 39.5005C6.23914 40.0184 6.65889 40.438 7.17664 40.438Z" fill="black"/>
<path d="M18.1796 40.438H22.9146C23.4323 40.438 23.8521 40.0184 23.8521 39.5005C23.8521 38.9826 23.4323 38.563 22.9146 38.563H18.1796C17.6618 38.563 17.2421 38.9826 17.2421 39.5005C17.2421 40.0184 17.6618 40.438 18.1796 40.438Z" fill="black"/>
<path d="M10.1841 32.0996C10.1841 32.6175 10.6038 33.0371 11.1216 33.0371H15.9228C16.4406 33.0371 16.8603 32.6175 16.8603 32.0996C16.8603 31.5817 16.4406 31.1621 15.9228 31.1621H11.1216C10.6038 31.1621 10.1841 31.5817 10.1841 32.0996Z" fill="black"/>
<path d="M29.8248 32.0996C29.8248 31.5817 29.405 31.1621 28.8873 31.1621H19.3009C18.7832 31.1621 18.3634 31.5817 18.3634 32.0996C18.3634 32.6175 18.7832 33.0371 19.3009 33.0371H28.8873C29.405 33.0371 29.8248 32.6174 29.8248 32.0996Z" fill="black"/>
<path d="M19.8442 35.7998C19.8442 35.2819 19.4245 34.8623 18.9067 34.8623H11.1216C10.6038 34.8623 10.1841 35.2819 10.1841 35.7998C10.1841 36.3177 10.6038 36.7373 11.1216 36.7373H18.9068C19.4245 36.7373 19.8442 36.3177 19.8442 35.7998Z" fill="black"/>
<path d="M24.6685 35.7998C24.6685 35.2819 24.2488 34.8623 23.731 34.8623H22.0984C21.5806 34.8623 21.1609 35.2819 21.1609 35.7998C21.1609 36.3177 21.5806 36.7373 22.0984 36.7373H23.731C24.2488 36.7373 24.6685 36.3177 24.6685 35.7998Z" fill="black"/>
<path d="M44.2427 24.445C44.7686 24.445 45.1949 24.0187 45.1949 23.4928C45.1949 22.9669 44.7686 22.5405 44.2427 22.5405C43.7167 22.5405 43.2904 22.9669 43.2904 23.4928C43.2904 24.0187 43.7167 24.445 44.2427 24.445Z" fill="black"/>
<path d="M23.4024 47.2718C23.2223 47.177 23.0043 47.1294 22.7483 47.1294C22.4923 47.1294 22.2741 47.177 22.0941 47.2718C21.914 47.3666 21.8239 47.5089 21.8239 47.6985V51.4118H18.6244V47.6985C18.6244 47.5089 18.5341 47.3666 18.3541 47.2718C18.174 47.177 17.956 47.1294 17.7 47.1294C17.4441 47.1294 17.2259 47.177 17.0459 47.2718C16.8658 47.3666 16.7758 47.5089 16.7758 47.6985V56.946C16.7758 57.1261 16.8658 57.2685 17.0459 57.3728C17.2259 57.4773 17.4441 57.5293 17.7 57.5293C17.9464 57.5293 18.1621 57.4773 18.347 57.3728C18.5319 57.2685 18.6243 57.1261 18.6243 56.946V52.8629H21.8238V56.946C21.8238 57.1261 21.9138 57.2685 22.094 57.3728C22.274 57.4773 22.4921 57.5293 22.7481 57.5293C22.9945 57.5293 23.2103 57.4773 23.3951 57.3728C23.58 57.2685 23.6724 57.1261 23.6724 56.946V47.6985C23.6726 47.5089 23.5824 47.3666 23.4024 47.2718Z" fill="black"/>
<path d="M31.2944 47.1294H25.2794C25.0897 47.1294 24.9453 47.2103 24.8457 47.3721C24.746 47.534 24.6964 47.7209 24.6964 47.9334C24.6964 48.1646 24.7484 48.3586 24.8528 48.5155C24.9569 48.6728 25.0992 48.7513 25.2794 48.7513H27.3698V56.943C27.3698 57.1241 27.4598 57.2671 27.6399 57.3721C27.8199 57.477 28.0382 57.5293 28.294 57.5293C28.5405 57.5293 28.7562 57.477 28.941 57.3721C29.1259 57.2671 29.2183 57.1243 29.2183 56.943V48.7513H31.2944C31.4744 48.7513 31.6165 48.6705 31.721 48.5088C31.8253 48.3469 31.8774 48.1554 31.8774 47.9334C31.8774 47.7209 31.8277 47.534 31.7282 47.3721C31.6287 47.2103 31.4839 47.1294 31.2944 47.1294Z" fill="black"/>
<path d="M40.8572 47.357C40.6817 47.2054 40.4613 47.1294 40.196 47.1294C39.8451 47.1294 39.5725 47.1913 39.3783 47.3144C39.1838 47.4376 38.9731 47.7033 38.7455 48.111L36.9965 51.2979L35.2473 48.111C35.0198 47.7033 34.8112 47.4376 34.6217 47.3144C34.432 47.1913 34.1618 47.1294 33.8112 47.1294C33.5457 47.1294 33.3253 47.2054 33.15 47.357C32.9745 47.5089 32.887 47.7411 32.887 48.0541V56.946C32.887 57.1261 32.977 57.2685 33.1571 57.3728C33.3371 57.4773 33.5553 57.5293 33.8112 57.5293C34.0576 57.5293 34.2733 57.4773 34.4582 57.3728C34.6431 57.2685 34.7355 57.1261 34.7355 56.946V50.7145L36.3708 53.7875C36.5035 54.0344 36.7072 54.1574 36.9823 54.1574C37.2667 54.1574 37.4751 54.0344 37.608 53.7875L39.2717 50.8284V56.9459C39.2717 57.126 39.3617 57.2684 39.542 57.3726C39.722 57.4771 39.9401 57.5291 40.1961 57.5291C40.4425 57.5291 40.6582 57.4771 40.8431 57.3726C41.028 57.2684 41.1203 57.126 41.1203 56.9459V48.054C41.1203 47.7413 41.0326 47.5089 40.8572 47.357Z" fill="black"/>
<path d="M48.1449 55.9075H44.6753V47.6985C44.6753 47.5089 44.585 47.3666 44.405 47.2718C44.2249 47.177 44.0069 47.1294 43.7509 47.1294C43.495 47.1294 43.2768 47.177 43.0968 47.2718C42.9167 47.3666 42.8267 47.5089 42.8267 47.6985V56.946C42.8267 57.1261 42.9072 57.2685 43.0684 57.3728C43.2295 57.4773 43.419 57.5293 43.6373 57.5293H48.145C48.3157 57.5293 48.4508 57.4488 48.5503 57.2874C48.6498 57.1261 48.6995 56.9365 48.6995 56.7183C48.6995 56.5001 48.6498 56.3105 48.5503 56.1491C48.4505 55.9881 48.3155 55.9075 48.1449 55.9075Z" fill="black"/>
</g>
<defs>
<clipPath id="clip0_110_274">
<rect width="64" height="64" fill="white"/>
</clipPath>
</defs>
</svg>
