<svg width="80" height="80" viewBox="0 0 80 80" fill="none" xmlns="http://www.w3.org/2000/svg">
<path d="M68.3386 15.7217L63.1751 73.5653L39.9653 79.9998L16.8193 73.5743L11.6614 15.7217H68.3386Z" fill="#004CE8"/>
<path d="M58.7547 69.8821L63.1672 20.4521H40V75.0817L58.7547 69.8821Z" fill="#0065F4"/>
<path d="M23.486 41.9092L24.1219 49.0045H40L43.0521 45.4568L40 41.9092H23.486Z" fill="#EBEBEB"/>
<path d="M40 27.5479H39.9755H22.2081L22.8531 34.6433H40L43.052 31.0955L40 27.5479Z" fill="#EBEBEB"/>
<path d="M40.0001 67.7188L43.0521 63.9562L40.0001 60.3366L39.969 60.3449L32.0668 58.2111L31.5616 52.5522H27.7218H24.439L25.433 63.693L39.9674 67.7279L40.0001 67.7188Z" fill="#EBEBEB"/>
<path d="M25 0H33.5938V3.59375H28.5938V7.1875H33.5938V10.7812H25V0Z" fill="black"/>
<path d="M35.3125 0H43.9062V3.125H38.9062V3.75H43.9062V10.9375H35.3125V7.65625H40.3125V7.03125H35.3125V0Z" fill="black"/>
<path d="M45.625 0H54.2188V3.125H49.2188V3.75H54.2188V10.9375H45.625V7.65625H50.625V7.03125H45.625V0Z" fill="black"/>
<path d="M48.7126 49.0044L47.8891 58.2066L39.9755 60.3425V67.7244L54.5214 63.693L54.6281 62.4943L56.2955 43.8144L56.4686 41.9091L57.7495 27.5479H39.9755V34.6433H49.9736L49.328 41.9091H39.9755V49.0044H48.7126Z" fill="white"/>
</svg>
