<svg width="70" height="70" viewBox="0 0 70 70" fill="none" xmlns="http://www.w3.org/2000/svg">
<g clip-path="url(#clip0_108_57)">
<path d="M60.4132 56.0527C51.944 65.9561 35.1487 72.7529 20.2455 66.9555C9.56281 62.7999 -0.287466 52.0525 0.725309 40.2517C1.36717 32.7733 6.41993 24.3094 13.9952 20.5974C19.9566 17.6764 25.0892 18.8697 28.3574 14.5252C31.2291 10.7079 28.8798 7.6412 31.318 4.59902C35.1732 -0.211556 47.1331 -0.137701 54.4387 3.77118C68.9062 11.5118 75.1318 38.8419 60.4132 56.0527Z" fill="#E6EDFF"/>
<path d="M62.4378 17.1013C63.0236 17.1013 63.4984 16.6265 63.4984 16.0407C63.4984 15.4549 63.0236 14.98 62.4378 14.98C61.852 14.98 61.3771 15.4549 61.3771 16.0407C61.3771 16.6265 61.852 17.1013 62.4378 17.1013Z" fill="#F94B70"/>
<path d="M6.85548 53.1555C7.44127 53.1555 7.91616 52.6807 7.91616 52.0949C7.91616 51.5091 7.44127 51.0342 6.85548 51.0342C6.26968 51.0342 5.7948 51.5091 5.7948 52.0949C5.7948 52.6807 6.26968 53.1555 6.85548 53.1555Z" fill="white"/>
<path d="M22.4167 61.9257C21.0447 61.5096 19.6628 62.0478 18.4859 62.8421C20.504 60.8254 22.6891 58.6965 21.1467 58.1086C19.8308 57.6069 18.4365 58.4491 17.4565 59.4584C18.5833 57.4847 19.8927 54.8059 18.9456 54.4273C17.6583 53.9126 15.3439 55.6356 14.2991 57.6419C14.4199 57.2341 14.3698 56.3534 14.2681 55.4543C14.0855 53.8385 13.527 52.2878 12.6431 50.923C12.3693 50.5003 11.7509 50.5003 11.4773 50.923C10.5934 52.2878 10.0348 53.8383 9.85227 55.4543C9.75068 56.3534 9.70056 57.2341 9.82128 57.6419C8.77647 55.6356 6.46217 53.9126 5.17473 54.4273C4.22766 54.8059 5.53689 57.4847 6.66386 59.4584C5.68386 58.4491 4.2895 57.6069 2.97359 58.1086C1.48891 58.6746 3.4578 60.6681 5.40727 62.6152C4.31189 61.9509 3.06732 61.5508 1.83075 61.9257C-2.14828 63.1325 6.21717 68.7878 6.21717 68.7878H18.0301C18.0303 68.7878 26.3959 63.1325 22.4167 61.9257Z" fill="#F94B70"/>
<path d="M19.6017 62.5862C18.605 62.2839 17.6009 62.6748 16.746 63.2519C18.2121 61.7868 19.7997 60.2401 18.6791 59.813C17.723 59.4485 16.7101 60.0604 15.9981 60.7936C16.8167 59.3598 17.7679 57.4136 17.0799 57.1385C16.1447 56.7646 14.4633 58.0163 13.7042 59.474C13.792 59.1777 13.7555 58.5379 13.6817 57.8846C13.5489 56.7108 13.1432 55.5842 12.5012 54.5927C12.3023 54.2855 11.8531 54.2855 11.6542 54.5927C11.012 55.5842 10.6063 56.7108 10.4737 57.8846C10.3998 58.5379 10.3634 59.1777 10.4512 59.474C9.69213 58.0164 8.01064 56.7646 7.07543 57.1385C6.3873 57.4136 7.33853 59.3598 8.15732 60.7936C7.44531 60.0604 6.43238 59.4485 5.47626 59.813C4.39764 60.2241 5.82804 61.6724 7.24435 63.087C6.44855 62.6044 5.54433 62.3137 4.64605 62.5862C1.75528 63.4628 7.91751 68.7877 7.91751 68.7877H16.4996C16.4995 68.7877 22.4925 63.4628 19.6017 62.5862Z" fill="#EA3F6C"/>
<path d="M16.8649 64.9073C16.2334 64.7159 15.5972 64.9635 15.0554 65.3291C15.9844 64.4007 16.9902 63.4209 16.2803 63.1502C15.6745 62.9193 15.0328 63.307 14.5816 63.7716C15.1004 62.8631 15.7031 61.6299 15.2671 61.4557C14.6745 61.2187 13.6092 62.012 13.1282 62.9355C13.1838 62.7477 13.1607 62.3424 13.114 61.9285C13.0299 61.1847 12.7729 60.4709 12.3659 59.8427C12.2399 59.6481 11.9553 59.6481 11.8292 59.8427C11.4224 60.4709 11.1653 61.1847 11.0812 61.9285C11.0345 62.3424 11.0113 62.7477 11.0669 62.9355C10.586 62.012 9.5207 61.2188 8.92807 61.4557C8.49206 61.6299 9.09477 62.8631 9.61354 63.7716C9.1624 63.3071 8.52068 62.9193 7.91485 63.1502C7.23146 63.4108 8.13776 64.3283 9.03515 65.2246C8.53091 64.9187 7.95801 64.7346 7.38881 64.9072C5.5571 65.4627 9.41362 68.7874 9.41362 68.7874H14.8514C14.8514 68.7874 18.6965 65.4629 16.8649 64.9073Z" fill="#F94B70"/>
<path d="M56.6128 47.5141H2.9661C1.32792 47.5141 0 46.1862 0 44.548V2.9661C0 1.32792 1.32792 0 2.9661 0H56.6128C58.251 0 59.5789 1.32792 59.5789 2.9661V44.548C59.5789 46.1862 58.2508 47.5141 56.6128 47.5141Z" fill="#39484C"/>
<path d="M54.7303 4.84863V42.6657H4.84837V4.84863H54.7303Z" fill="white"/>
<path d="M29.7894 33.5846C35.2286 33.5846 39.6379 29.1847 39.6379 23.7571C39.6379 18.3296 35.2286 13.9297 29.7894 13.9297C24.3502 13.9297 19.9409 18.3296 19.9409 23.7571C19.9409 29.1847 24.3502 33.5846 29.7894 33.5846Z" fill="#3434EA"/>
<path d="M26.8236 29.049V18.4658L35.3084 23.7573L26.8236 29.049Z" fill="white"/>
<path d="M35.2673 21.5152V66.9698C35.2673 68.6434 36.624 70.0001 38.2977 70.0001H66.9696C68.6432 70.0001 69.9999 68.6434 69.9999 66.9698V21.5152C69.9999 19.8416 68.6432 18.4849 66.9696 18.4849H38.2977C36.624 18.4849 35.2673 19.8416 35.2673 21.5152Z" fill="#222B2D"/>
<path d="M39.6034 23.7876H65.664V64.6967H39.6034V23.7876Z" fill="white"/>
<path d="M52.6338 21.9877C53.0521 21.9877 53.3913 21.6486 53.3913 21.2302C53.3913 20.8118 53.0521 20.4727 52.6338 20.4727C52.2154 20.4727 51.8762 20.8118 51.8762 21.2302C51.8762 21.6486 52.2154 21.9877 52.6338 21.9877Z" fill="white"/>
<path d="M52.6337 47.9547C56.8177 47.9547 60.2094 44.5629 60.2094 40.3789C60.2094 36.195 56.8177 32.8032 52.6337 32.8032C48.4497 32.8032 45.058 36.195 45.058 40.3789C45.058 44.5629 48.4497 47.9547 52.6337 47.9547Z" fill="#F4B831"/>
<path d="M50.3523 44.4582V36.2998L56.8791 40.3789L50.3523 44.4582Z" fill="white"/>
<path d="M60.967 53.2736H47.8822V52.3485C47.8822 51.939 47.5501 51.6069 47.1407 51.6069C46.7312 51.6069 46.3992 51.939 46.3992 52.3485V53.2736H44.3005C43.891 53.2736 43.559 53.6056 43.559 54.0151C43.559 54.4246 43.891 54.7566 44.3005 54.7566H46.3992V55.6818C46.3992 56.0912 46.7312 56.4233 47.1407 56.4233C47.5501 56.4233 47.8822 56.0912 47.8822 55.6818V54.7566H60.967C61.3765 54.7566 61.7085 54.4246 61.7085 54.0151C61.7085 53.6056 61.3766 53.2736 60.967 53.2736Z" fill="#D6D6D6"/>
<path d="M16.6965 40.5682V67.538C16.6965 68.8769 17.7818 69.9622 19.1207 69.9622H37.487C38.8259 69.9622 39.9112 68.8767 39.9112 67.538V40.5682C39.9112 39.2293 38.8257 38.144 37.487 38.144H19.1207C17.7818 38.144 16.6965 39.2295 16.6965 40.5682Z" fill="#B2B2B2"/>
<path d="M19.6675 42.3862H36.9403V65.7195H19.6675V42.3862Z" fill="white"/>
<path d="M25.495 58.1327V49.9741L32.0218 54.0534L25.495 58.1327Z" fill="#ED5132"/>
</g>
<defs>
<clipPath id="clip0_108_57">
<rect width="70" height="70" fill="white"/>
</clipPath>
</defs>
</svg>
