<svg width="86" height="63" viewBox="0 0 86 63" fill="none" xmlns="http://www.w3.org/2000/svg">
<path d="M74.0329 36.1764C71.026 36.193 68.4223 36.8987 66.2385 37.9496C65.4322 36.39 64.6258 35.0272 64.4916 34.0095C64.3404 32.8275 64.1557 32.105 64.3404 30.6933C64.5251 29.2812 65.365 27.2784 65.365 27.1142C65.348 26.9664 65.18 26.2441 63.45 26.2277C61.7199 26.2113 60.2247 26.556 60.0567 26.9993C59.8887 27.4425 59.5528 28.4604 59.3344 29.5111C59.032 31.0543 55.8739 36.5211 54.0765 39.3941C53.4885 38.2777 52.9846 37.2927 52.8836 36.5045C52.7326 35.3227 52.5477 34.6002 52.7326 33.1885C52.9174 31.7765 53.7573 29.7737 53.7573 29.6096C53.7405 29.4618 53.5725 28.7395 51.8425 28.7231C50.1121 28.7066 48.6172 29.0514 48.4492 29.4947C48.2812 29.9379 48.0965 30.9886 47.7269 32.0065C47.374 33.0243 43.1744 42.1522 42.0825 44.5326C41.5281 45.7475 41.0411 46.7161 40.6882 47.3728C40.3354 48.0294 40.6714 47.422 40.6378 47.4877C40.3354 48.0459 40.1675 48.3578 40.1675 48.3578V48.3744C39.9323 48.7848 39.6803 49.1786 39.5626 49.1786C39.4786 49.1786 39.3106 48.0787 39.5962 46.5685C40.2177 43.3998 41.7295 38.4585 41.7129 38.2779C41.7129 38.1958 41.9983 37.3256 40.7384 36.8825C39.5122 36.4392 39.0756 37.178 38.9746 37.178C38.8738 37.178 38.7898 37.4406 38.7898 37.4406C38.7898 37.4406 40.1505 31.8754 36.1861 31.8754C33.6999 31.8754 30.2731 34.5186 28.5764 36.9319C27.5013 37.5065 25.2168 38.7212 22.7978 40.0183C21.8739 40.5108 20.9164 41.0361 20.0093 41.5122L19.8247 41.3149C15.0203 36.3077 6.13403 32.7616 6.50359 26.0307C6.63798 23.5845 7.51149 17.1327 23.5709 9.31818C36.724 2.91556 47.2565 4.67217 49.0874 8.57942C51.6911 14.1612 43.4599 24.5367 29.7863 26.0307C24.5788 26.6053 21.8405 24.6352 21.1519 23.8965C20.4296 23.1249 20.3288 23.092 20.06 23.2398C19.6233 23.4696 19.892 24.1591 20.06 24.5696C20.4632 25.6038 22.143 27.4425 24.9987 28.3619C27.5015 29.1663 33.6163 29.6096 41.0076 26.8187C49.2891 23.683 55.7565 14.982 53.8583 7.70932C51.9265 0.305256 39.3613 -2.12446 27.4849 1.99621C20.4126 4.45875 12.7526 8.30033 7.24272 13.3403C0.691364 19.3161 -0.350134 24.5367 0.0866231 26.7038C1.61544 34.4362 12.5174 39.4762 16.885 43.2028C16.6666 43.3176 16.465 43.4325 16.2802 43.5312C14.0964 44.5817 5.78126 48.8339 3.69827 53.332C1.3465 58.4212 4.06783 62.0824 5.88205 62.5749C11.4927 64.1017 17.2377 61.36 20.3454 56.8454C23.4361 52.3307 23.0668 46.4698 21.6389 43.7939L21.5883 43.6954L23.3018 42.7103C24.4106 42.0701 25.5025 41.4791 26.4599 40.97C25.9225 42.3982 25.5359 44.0892 25.3345 46.5517C25.0994 49.4413 26.3088 53.1842 27.9047 54.6617C28.6102 55.3018 29.4501 55.3184 29.9709 55.3184C31.8187 55.3184 32.6586 53.8243 33.5825 52.035C34.7248 49.8516 35.7327 47.3233 35.7327 47.3233C35.7327 47.3233 34.4728 54.1692 37.9165 54.1692C39.1764 54.1692 40.4362 52.5768 41.0074 51.7559V51.7723C41.0074 51.7723 41.041 51.7231 41.1082 51.6082C41.1787 51.5063 41.2459 51.4024 41.3098 51.2964V51.2636C41.8137 50.4099 42.9392 48.4563 44.619 45.2221C46.7858 41.0522 48.869 35.8316 48.869 35.8316C48.869 35.8316 49.0706 37.1121 49.6921 39.2135C50.0615 40.4614 50.8678 41.8238 51.4894 43.1536C50.9854 43.8431 50.6831 44.2373 50.6831 44.2373L50.6999 44.2537C50.2969 44.779 49.8431 45.3374 49.373 45.8954C47.6595 47.8983 45.6101 50.1804 45.3414 50.8371C45.0222 51.6085 45.0894 52.1831 45.7109 52.6429C46.1645 52.9713 46.9708 53.0368 47.8275 52.9713C49.373 52.8726 50.448 52.4952 50.9856 52.2652C51.8255 51.9697 52.783 51.5264 53.7069 50.8697C55.3868 49.655 56.4115 47.9313 56.3107 45.6329C56.2603 44.3688 55.8403 43.1211 55.3196 41.9391C55.4708 41.7256 55.6221 41.5121 55.7731 41.2824C58.4273 37.4899 60.4767 33.3201 60.4767 33.3201C60.4767 33.3201 60.6782 34.6007 61.2998 36.702C61.6188 37.7691 62.2573 38.9349 62.8284 40.0841C60.3423 42.0706 58.78 44.3689 58.2425 45.8793C57.2514 48.6702 58.0241 49.9343 59.4856 50.2298C60.1405 50.3611 61.0814 50.0656 61.7868 49.7701C62.6603 49.491 63.7186 49.0148 64.693 48.309C66.3729 47.0942 67.9855 45.4032 67.9015 43.1213C67.8511 42.0706 67.5656 41.0363 67.1792 40.0513C69.2958 39.1976 72.0337 38.7051 75.5112 39.1155C82.9864 39.9692 84.4647 44.5331 84.1793 46.4375C83.8937 48.342 82.3315 49.3925 81.8106 49.7209C81.2898 50.0328 81.1218 50.1479 81.1722 50.3776C81.2394 50.7225 81.4746 50.7059 81.9281 50.6404C82.5497 50.5417 85.859 49.0808 85.9933 45.5677C86.1949 41.0524 81.8106 36.1273 74.0329 36.1764ZM16.381 55.1708C13.9117 57.814 10.4344 58.8154 8.95615 57.9617C7.36031 57.0588 7.98168 53.168 11.0223 50.3606C12.8702 48.6533 15.2723 47.0773 16.8514 46.1087C17.2041 45.8952 17.7417 45.5835 18.38 45.2057C18.4808 45.1402 18.548 45.1072 18.548 45.1072C18.6656 45.0415 18.8 44.9595 18.9344 44.8774C20.0599 48.8831 18.9848 52.3964 16.381 55.1708ZM34.4392 43.17C33.5825 45.2221 31.7683 50.492 30.6764 50.1965C29.7355 49.9502 29.1646 45.9609 30.4915 42.0208C31.1634 40.0342 32.5912 37.6703 33.4312 36.7508C34.792 35.2733 36.2701 34.7808 36.6398 35.3882C37.0766 36.1764 34.9768 41.8895 34.4392 43.17ZM49.3394 50.1308C48.9698 50.3116 48.6338 50.4427 48.4826 50.3444C48.3651 50.2787 48.6337 50.0325 48.6337 50.0325C48.6337 50.0325 50.4983 48.0789 51.2374 47.1759C51.6574 46.6507 52.1613 46.0433 52.6989 45.3536V45.5506C52.699 47.9145 50.3809 49.4905 49.3394 50.1308ZM60.8293 47.5698C60.5605 47.3728 60.5942 46.7653 61.5012 44.861C61.8541 44.1058 62.6603 42.8417 64.0545 41.6432C64.2225 42.1357 64.3235 42.6117 64.3065 43.0551C64.2899 46.0101 62.1397 47.1101 60.8293 47.5698Z" fill="#D55194"/>
</svg>
