<svg width="74" height="74" viewBox="0 0 74 74" fill="none" xmlns="http://www.w3.org/2000/svg">
<g clip-path="url(#clip0_110_114)">
<path d="M59.5047 20.7407V43.0794C59.5047 43.5794 59.457 44.0679 59.366 44.542C58.1057 44.779 56.9567 45.3283 55.9999 46.1058C55.0358 46.8892 54.2669 47.9038 53.7799 49.0658C53.5674 49.5717 53.4084 50.1064 53.3101 50.6614C52.8202 50.7597 52.3143 50.8117 51.7955 50.8117H24.3375L17.6934 58.6309C17.4882 58.8737 17.1876 59.0139 16.8696 59.0139C16.5517 59.0139 16.2496 58.8737 16.0429 58.6309L9.39883 50.8117H7.71071C3.45862 50.8117 0 47.343 0 43.0794V20.7407C0 16.477 3.45862 13.0083 7.71071 13.0083H51.7955C56.0461 13.0083 59.5047 16.477 59.5047 20.7407Z" fill="#9090FB"/>
<path d="M48.9062 50.8119C50.7534 50.8119 52.4502 50.1571 53.7798 49.0659C53.5674 49.5718 53.4084 50.1065 53.3101 50.6615C52.8202 50.7598 52.3143 50.8119 51.7954 50.8119H48.9062Z" fill="#6C5FEA"/>
<path d="M59.5047 20.7407V43.0795C59.5047 43.5796 59.457 44.0681 59.366 44.5421C58.1057 44.7792 56.9566 45.3284 55.9998 46.106C56.3959 45.1766 56.6155 44.1533 56.6155 43.0795V20.7407C56.6155 16.4771 53.1569 13.0083 48.9062 13.0083H51.7954C56.0461 13.0083 59.5047 16.4771 59.5047 20.7407Z" fill="#6C5FEA"/>
<path d="M36.6549 69.3262C36.6549 71.9032 34.562 74.0003 31.9898 74.0003H4.66504C2.09281 74.0003 0 71.9032 0 69.3262C0 66.7492 2.09281 64.6535 4.66504 64.6535H5.07088L7.50883 61.2859C7.71248 61.0041 8.03883 60.8364 8.38556 60.8364C8.73359 60.8364 9.06009 61.0041 9.26373 61.2859L11.7017 64.6535H31.9897C34.562 64.6535 36.6549 66.7492 36.6549 69.3262Z" fill="#FF6B81"/>
<path d="M73.9998 4.67463C73.9998 7.25162 71.907 9.34732 69.3348 9.34732H66.4462L64.0082 12.7149C63.8046 12.9967 63.4782 13.1644 63.1315 13.1644C62.7835 13.1644 62.457 12.9967 62.2533 12.7149L59.8168 9.34732H42.0101C39.4379 9.34732 37.3451 7.25162 37.3451 4.67463C37.3451 2.09764 39.4379 0.000488281 42.0101 0.000488281H69.3348C71.907 0.000488281 73.9998 2.09764 73.9998 4.67463Z" fill="#FBDF63"/>
<path d="M73.9997 4.67463C73.9997 7.25162 71.9069 9.34732 69.3346 9.34732H66.446C69.0183 9.34732 71.1111 7.25162 71.1111 4.67463C71.1111 2.09764 69.0183 0.000488281 66.446 0.000488281H69.3346C71.9069 0.000488281 73.9997 2.09764 73.9997 4.67463Z" fill="#FFA402"/>
<path d="M36.6547 69.326C36.6547 71.903 34.5619 74.0002 31.9897 74.0002H29.1011C31.6733 74.0002 33.7661 71.903 33.7661 69.326C33.7661 66.749 31.6733 64.6533 29.1011 64.6533H31.9897C34.5619 64.6533 36.6547 66.749 36.6547 69.326Z" fill="#ED2061"/>
<path d="M21.6585 27.2363C22.2572 27.2363 22.7425 26.7511 22.7425 26.1523C22.7425 25.5536 22.2572 25.0684 21.6585 25.0684H15.8774C15.2788 25.0684 14.7935 25.5536 14.7935 26.1523V31.9336C14.7935 32.5324 15.2788 33.0176 15.8774 33.0176H20.5746V36.6309H15.8774C15.2788 36.6309 14.7935 37.1161 14.7935 37.7148C14.7935 38.3136 15.2788 38.7988 15.8774 38.7988H21.6585C22.2572 38.7988 22.7425 38.3136 22.7425 37.7148V31.9336C22.7425 31.3348 22.2572 30.8496 21.6585 30.8496H16.9614V27.2363H21.6585Z" fill="white"/>
<path d="M32.4981 27.2363C33.0968 27.2363 33.5821 26.7511 33.5821 26.1523C33.5821 25.5536 33.0968 25.0684 32.4981 25.0684H26.717C26.1184 25.0684 25.6331 25.5536 25.6331 26.1523V37.7148C25.6331 38.3136 26.1184 38.7988 26.717 38.7988H32.4981C33.0968 38.7988 33.5821 38.3136 33.5821 37.7148C33.5821 37.1161 33.0968 36.6309 32.4981 36.6309H27.801V33.0176H32.4981C33.0968 33.0176 33.5821 32.5324 33.5821 31.9336C33.5821 31.3348 33.0968 30.8496 32.4981 30.8496H27.801V27.2363H32.4981Z" fill="white"/>
<path d="M43.3377 25.0684H37.5566C36.958 25.0684 36.4727 25.5536 36.4727 26.1523V37.7148C36.4727 38.3136 36.958 38.7988 37.5566 38.7988H43.3377C43.9364 38.7988 44.4217 38.3136 44.4217 37.7148V26.1523C44.4217 25.5536 43.9364 25.0684 43.3377 25.0684ZM42.2538 36.6309H38.6406V27.2363H42.2538V36.6309Z" fill="white"/>
<path d="M73.9986 49.827C73.9986 49.2951 73.6098 48.8413 73.0837 48.7574L71.5878 48.5204L70.8753 46.7977L71.7642 45.5707C72.0764 45.1385 72.0301 44.5445 71.6529 44.1674L68.5917 41.1064C68.2145 40.7292 67.619 40.6829 67.1869 40.9965L65.9627 41.8868L64.2413 41.1743L64.0028 39.6771C63.919 39.151 63.4652 38.7637 62.9333 38.7637H61.0934L58.6046 38.7651C58.0713 38.7666 57.6174 39.1539 57.5336 39.68L57.2966 41.1772L55.5767 41.8912L54.351 41.0009C53.9189 40.6887 53.3249 40.7349 52.9476 41.1122L49.8879 44.1761C49.5107 44.5533 49.4644 45.1473 49.7781 45.5793L50.6669 46.805L49.9544 48.5291L48.4599 48.7661C47.9339 48.8499 47.5465 49.3038 47.5465 49.8371L47.548 54.1684C47.548 54.7003 47.9367 55.1541 48.4628 55.2379L49.9587 55.475L50.6713 57.1976L49.7824 58.4245C49.4702 58.8567 49.5165 59.4507 49.8937 59.8278L52.9549 62.8888C53.3321 63.2661 53.9276 63.3123 54.3583 62.9987L55.5824 62.1084L57.3053 62.8223L57.5437 64.3181C57.6276 64.8442 58.0814 65.2315 58.6133 65.2315H58.6147L60.7812 65.2301H62.942C63.4753 65.2286 63.9291 64.8413 64.013 64.3152L64.25 62.818L65.9699 62.104L67.1955 62.9943C67.6277 63.3065 68.2231 63.2603 68.5989 62.883L71.6587 59.8191C72.0359 59.4419 72.0821 58.8479 71.7685 58.4159L70.8796 57.1904L71.5922 55.4677L73.0866 55.2293C73.6127 55.1454 74.0001 54.6916 74.0001 54.1583L73.9986 49.827ZM60.7726 57.7786C57.5799 57.7786 54.9913 55.1902 54.9913 51.9977C54.9913 48.8051 57.5799 46.2167 60.7726 46.2167C63.9667 46.2167 66.5538 48.8051 66.5538 51.9977C66.5538 55.1902 63.9667 57.7786 60.7726 57.7786Z" fill="#56788B"/>
<path d="M74 54.1581C74 54.6914 73.6126 55.1453 73.0865 55.2291L71.5921 55.4676L70.8795 57.1903L71.7684 58.4159C72.082 58.848 72.0358 59.442 71.6586 59.8191L68.5988 62.883C68.223 63.2603 67.6276 63.3065 67.1954 62.9943L65.9698 62.104L64.2499 62.818L64.0128 64.3152C63.929 64.8413 63.4752 65.2286 62.9419 65.2301H60.7811L61.7379 60.7311L66.3571 58.8133L67.6449 59.7485L68.5237 58.8668L67.59 57.5805L69.5383 52.8676L71.1093 52.6176L71.1079 51.3704L69.5368 51.1218L67.5857 46.4104L68.5193 45.1226L67.6391 44.2424L66.3528 45.1761L61.5385 43.1831L61.0933 38.7637H62.9332C63.4651 38.7637 63.9189 39.151 64.0027 39.6771L64.2412 41.1743L65.9626 41.8868L67.1868 40.9965C67.6189 40.6829 68.2144 40.7292 68.5916 41.1064L71.6528 44.1674C72.03 44.5446 72.0762 45.1387 71.7641 45.5707L70.8752 46.7977L71.5877 48.5204L73.0836 48.7574C73.6097 48.8413 73.9985 49.2951 73.9985 49.827L74 54.1581Z" fill="#415E6F"/>
</g>
<defs>
<clipPath id="clip0_110_114">
<rect width="74" height="74" fill="white"/>
</clipPath>
</defs>
</svg>
