<svg width="70" height="70" viewBox="0 0 70 70" fill="none" xmlns="http://www.w3.org/2000/svg">
<g clip-path="url(#clip0_110_344)">
<path fill-rule="evenodd" clip-rule="evenodd" d="M21.9554 10.5783C20.4903 10.5783 19.2886 11.7799 19.2886 13.2491V15.6524C19.2886 17.1216 20.4902 18.3193 21.9554 18.3193H24.6262C27.9158 14.5864 26.3508 11.6321 24.4386 10.5781L21.9554 10.5783Z" fill="#9FD4FE"/>
<path fill-rule="evenodd" clip-rule="evenodd" d="M47.2421 18.3196H48.8845L49.9119 18.6856C49.9119 18.6856 50.6044 18.4156 50.9968 18.1624C52.025 17.7909 52.7633 16.803 52.7633 15.6527V13.2494C52.7633 11.7802 51.5657 10.5786 50.0965 10.5786H47.4257C45.3618 11.5207 45.0304 16.6988 47.2421 18.3196Z" fill="#9FD4FE"/>
<path fill-rule="evenodd" clip-rule="evenodd" d="M19.2887 15.6526C19.2887 17.1218 20.4903 18.3194 21.9555 18.3194H24.6263C25.2052 17.6647 25.6323 17.0299 25.9358 16.4271H24.4426H21.9554C20.4903 16.4271 19.2886 15.2255 19.2886 13.7603L19.2887 15.6526Z" fill="#85BEEF"/>
<path fill-rule="evenodd" clip-rule="evenodd" d="M47.4258 16.4271H46.0045C46.248 17.2136 46.6593 17.8923 47.2421 18.3194H49.9408H50.0965C51.5657 18.3194 52.7633 17.1178 52.7633 15.6526V13.7603C52.7633 15.2255 51.5657 16.4271 50.0965 16.4271H49.9408H47.4258Z" fill="#85BEEF"/>
<path fill-rule="evenodd" clip-rule="evenodd" d="M38.8585 26.6077C37.8006 27.003 36.8664 27.1986 35.9361 27.1986C35.0019 27.1986 34.0677 27.003 33.0098 26.6077C32.0437 26.2484 31.1095 25.7494 30.2352 25.1465V31.9135L35.1776 35.9896H36.6907L38.9342 34.1412L40.1319 33.1551L41.6329 31.9135V25.1465C40.7627 25.7493 39.8286 26.2484 38.8585 26.6077Z" fill="#F5A96C"/>
<path fill-rule="evenodd" clip-rule="evenodd" d="M35.9361 27.1983C35.0019 27.1983 34.0677 27.0026 33.0098 26.6074C32.0437 26.2481 31.1095 25.7491 30.2352 25.1461V28.5316C31.409 29.845 35.976 31.5857 38.9223 30.0686V34.0648L41.6331 30.4198V26.6391V25.146C40.7627 25.7488 39.8286 26.2478 38.8585 26.6072C37.8006 27.0028 36.8664 27.1983 35.9361 27.1983Z" fill="#EA9A58"/>
<path fill-rule="evenodd" clip-rule="evenodd" d="M33.4331 52.0624L35.9362 41.6665L26.6185 31.5859C24.9297 32.2207 23.1332 33.0312 21.4646 34.0332C18.6661 35.718 16.2267 37.9536 15.2727 40.8281C14.9933 41.6625 14.8415 42.5528 14.8415 43.4989V50.765C14.7816 51.799 15.0291 52.0624 16.0431 52.0624H28.8142H33.4331Z" fill="#375E7D"/>
<path fill-rule="evenodd" clip-rule="evenodd" d="M57.0271 43.4991C57.0271 37.3549 50.5956 33.5941 45.25 31.5859L35.9362 41.6665L38.6988 52.0624H55.8255C56.8435 52.0624 57.087 51.799 57.0271 50.765V43.4991Z" fill="#375E7D"/>
<path fill-rule="evenodd" clip-rule="evenodd" d="M40.156 52.0624L38.2757 41.6665L35.9362 40.4009L33.5928 41.6665L31.7125 52.0624H35.9362H40.156Z" fill="#EB5468"/>
<path fill-rule="evenodd" clip-rule="evenodd" d="M35.9361 40.4009L33.5926 41.6665L33.2853 43.3792H36.1222C36.3265 43.3792 36.5016 43.5253 36.538 43.7264L38.048 52.0624H40.1559L38.2757 41.6665L35.9361 40.4009Z" fill="#E5384F"/>
<path fill-rule="evenodd" clip-rule="evenodd" d="M40.2279 37.5146L38.9344 35.7747L35.9361 35.1191L33.0281 35.5986L31.6445 37.5146L33.5928 41.6666H35.9361H38.2757L40.2279 37.5146Z" fill="#EB5468"/>
<path fill-rule="evenodd" clip-rule="evenodd" d="M35.9361 35.1191H33.0281L31.6445 37.5146L32.5867 39.5227L34.1515 38.6484L35.73 37.7692C35.8581 37.6978 36.0141 37.6979 36.142 37.7696L37.9403 38.7761L39.2816 39.5227L40.2277 37.5146L39.19 35.6692L35.9361 35.1191Z" fill="#E5384F"/>
<path fill-rule="evenodd" clip-rule="evenodd" d="M35.9361 35.1189L30.2352 30.4199C29.1693 30.7073 27.9237 31.0946 26.6183 31.5857L29.9196 37.974C30.029 38.1857 30.2916 38.2651 30.5 38.1495L31.6445 37.5143L35.9361 35.1189Z" fill="#EFF6FF"/>
<path fill-rule="evenodd" clip-rule="evenodd" d="M45.25 31.5857C43.9446 31.0946 42.7029 30.7074 41.6331 30.4199L35.9362 35.1189L40.2278 37.5144L41.372 38.1495C41.5803 38.2651 41.8431 38.1855 41.9525 37.9738L45.25 31.5857Z" fill="#EFF6FF"/>
<path fill-rule="evenodd" clip-rule="evenodd" d="M45.2499 31.5857C43.9445 31.0946 42.7028 30.7074 41.633 30.4199L40.132 31.6575L38.9343 32.6437C40.0642 33.0029 41.2937 33.4502 42.5393 33.9891C42.9385 34.1608 43.3338 34.3444 43.729 34.532L45.2499 31.5857Z" fill="#D9EEFF"/>
<path fill-rule="evenodd" clip-rule="evenodd" d="M57.0271 43.4991C57.0271 37.3549 50.5956 33.5941 45.25 31.5859L43.729 34.5322C49.0746 36.5404 52.6357 40.3011 52.6357 46.4454V52.0626H55.8255C56.8435 52.0626 57.087 51.7991 57.0271 50.7651V43.4991Z" fill="#2B4D66"/>
<path fill-rule="evenodd" clip-rule="evenodd" d="M47.4259 16.6985V13.7402C45.8329 10.1072 29.0856 1.37194 24.4427 14.5825V16.6985C24.4427 20.8226 28.3191 25.9966 33.0579 27.7532C34.0959 28.1404 35.0141 28.3321 35.9363 28.3321C36.8545 28.3321 37.7727 28.1404 38.8146 27.7532C43.5493 25.9966 47.4259 20.8225 47.4259 16.6985Z" fill="#FFBC85"/>
<path fill-rule="evenodd" clip-rule="evenodd" d="M47.4259 9.61615C47.4259 1.18033 33.8444 -3.02746 29.5927 2.49379C24.0396 2.98488 24.4467 10.3747 24.4467 11.3488L24.4426 13.7403V14.5826C28.367 11.6682 27.0656 12.3988 29.868 10.6662C34.1477 8.02324 37.7846 13.7403 44.5713 13.7403H47.4257L47.4259 9.61615Z" fill="#375E7D"/>
<path fill-rule="evenodd" clip-rule="evenodd" d="M41.5453 26.3161C43.7489 24.791 45.5614 22.5953 46.5675 20.3435C47.1185 19.1139 47.4258 17.8642 47.4258 16.6986V13.7403C46.2681 12.7501 45.0066 12.3031 43.757 13.7124V16.6986C43.757 19.9962 41.2818 23.9646 37.8645 26.3241C37.0102 26.915 36.0959 27.402 35.1459 27.7534C34.7826 27.8891 34.4393 27.9969 34.1 28.0848C34.7348 28.2524 35.3336 28.3323 35.9364 28.3323C36.8546 28.3323 37.7728 28.1406 38.8147 27.7534C39.7646 27.402 40.6869 26.907 41.5453 26.3161Z" fill="#F5A96C"/>
<path fill-rule="evenodd" clip-rule="evenodd" d="M43.757 13.7122C44.0244 13.7322 44.296 13.7401 44.5715 13.7401H47.4259V9.61597C47.4259 3.14835 39.4455 -0.831944 33.8044 0.150243C38.7069 0.900829 43.757 4.47397 43.757 9.61597V13.7122Z" fill="#2B4D66"/>
<path fill-rule="evenodd" clip-rule="evenodd" d="M3.52339 49.1602H66.4766C68.4128 49.1602 69.9978 50.7451 69.9978 52.6813V66.4789C69.9978 68.4151 68.413 70.0001 66.4766 70.0001H3.52339C1.58718 70.0001 0.00219727 68.4151 0.00219727 66.4789V52.6813C0.00233398 50.7451 1.58718 49.1602 3.52339 49.1602Z" fill="#9FD4FE"/>
<path fill-rule="evenodd" clip-rule="evenodd" d="M69.9977 66.4789V52.6813C69.9977 50.7451 68.4129 49.1602 66.4765 49.1602H61.2108C63.147 49.1602 64.732 50.7451 64.732 52.6813V55.2964V66.4789C64.732 68.4151 63.1472 70.0001 61.2108 70.0001H66.4765C68.4129 70.0001 69.9977 68.4151 69.9977 66.4789Z" fill="#85BEEF"/>
<path d="M7.34389 64.3693C6.04356 64.3693 4.77453 63.8243 3.94944 62.9115C3.55815 62.4786 3.59178 61.8108 4.02463 61.4196C4.45735 61.0284 5.12536 61.0621 5.51651 61.4948C5.94786 61.9718 6.6309 62.2566 7.34375 62.2566C7.99768 62.2566 8.47237 61.8652 8.5369 61.5025C8.62289 61.0212 7.86383 60.7017 7.62922 60.6151C6.46274 60.1843 5.42641 59.7213 5.38293 59.7017C5.33262 59.6792 5.28422 59.6528 5.23815 59.6228C4.40717 59.0814 3.97952 58.1321 4.12225 57.1448C4.27373 56.097 5.03895 55.2457 6.1193 54.9229C8.22381 54.2873 9.95836 55.7158 10.0312 55.7768C10.478 56.152 10.536 56.8183 10.1608 57.265C9.78746 57.7097 9.12575 57.7693 8.67895 57.3999C8.65106 57.3778 7.71891 56.6457 6.72729 56.9462C6.31043 57.0706 6.22909 57.3377 6.21323 57.4468C6.20024 57.5362 6.20256 57.6955 6.34243 57.8158C6.61969 57.9374 7.4601 58.3002 8.36067 58.633C10.3214 59.3556 10.8119 60.7807 10.6169 61.8734C10.3591 63.3197 8.98246 64.3693 7.34389 64.3693Z" fill="#2B4D66"/>
<path d="M16.2945 64.3695C15.5785 64.3695 14.9211 64.1799 14.3409 63.8057C13.2404 63.1076 12.6791 62.1533 12.6791 60.9737V55.8156C12.6791 55.232 13.152 54.7593 13.7354 54.7593C14.3189 54.7593 14.7917 55.2322 14.7917 55.8156V60.9737C14.7917 61.3542 14.9066 61.6628 15.4789 62.0259C15.7222 62.1827 15.9867 62.2568 16.2943 62.2568C16.5806 62.2568 16.8293 62.2013 17.055 62.0871C17.7899 61.7163 17.8889 61.3143 17.8889 60.9697V55.8156C17.8889 55.232 18.3618 54.7593 18.9452 54.7593C19.5286 54.7593 20.0015 55.2322 20.0015 55.8156V60.9697C20.0015 61.8807 19.6556 63.1412 18.0077 63.9728C17.4879 64.2358 16.9111 64.3695 16.2945 64.3695Z" fill="#2B4D66"/>
<path d="M65.2668 54.7866H61.1268C60.5433 54.7866 60.0706 55.2595 60.0706 55.8429C60.0706 56.4264 60.5435 56.8992 61.1268 56.8992H62.1305V63.3404C62.1305 63.9239 62.6034 64.3967 63.1868 64.3967C63.7702 64.3967 64.2431 63.9238 64.2431 63.3404V56.8993H65.2667C65.8502 56.8993 66.323 56.4264 66.323 55.843C66.3233 55.2595 65.8503 54.7866 65.2668 54.7866Z" fill="#2B4D66"/>
<path d="M57.9076 57.7635C57.9076 56.1067 56.5096 54.7588 54.7912 54.7588H52.7992C52.2238 54.7588 51.7429 55.24 51.7429 55.8151V63.3127C51.7429 63.8963 52.2158 64.369 52.7992 64.369C53.3827 64.369 53.8555 63.8961 53.8555 63.3127V61.509L56.0584 64.0108C56.2672 64.248 56.5587 64.3692 56.8517 64.3692C57.0997 64.3692 57.3487 64.2823 57.5494 64.1056C57.9873 63.72 58.0297 63.0526 57.6441 62.6148L55.8583 60.5866C57.0527 60.1656 57.9076 59.059 57.9076 57.7635ZM54.7913 56.8715C55.3353 56.8715 55.795 57.28 55.795 57.7635C55.795 58.2469 55.3353 58.6554 54.7913 58.6554C54.5726 58.6554 54.2167 58.6566 53.8663 58.6581C53.8648 58.318 53.8622 57.2294 53.8607 56.8715H54.7913Z" fill="#2B4D66"/>
<path d="M34.435 54.7588H32.3471C31.7715 54.7588 31.2908 55.24 31.2908 55.8151V63.3127C31.2908 63.8963 31.7637 64.369 32.3471 64.369C32.9306 64.369 33.4034 63.8961 33.4034 63.3127V61.1064C33.7894 61.1047 34.1925 61.1034 34.4349 61.1034C36.2061 61.1034 37.647 59.6804 37.647 57.9311C37.647 56.1818 36.2062 54.7588 34.435 54.7588ZM34.435 58.9908C34.1943 58.9908 33.7959 58.9921 33.412 58.9938C33.4095 58.5961 33.4075 58.1798 33.4075 57.9311C33.4075 57.72 33.4066 57.2895 33.4058 56.8715H34.435C35.031 56.8715 35.5344 57.3567 35.5344 57.9311C35.5344 58.5054 35.031 58.9908 34.435 58.9908Z" fill="#2B4D66"/>
<path d="M25.9038 54.7588H23.8158C23.2402 54.7588 22.7595 55.24 22.7595 55.8151V63.3127C22.7595 63.8963 23.2324 64.369 23.8158 64.369C24.3993 64.369 24.8721 63.8961 24.8721 63.3127V61.1064C25.2586 61.1047 25.6616 61.1034 25.9036 61.1034C27.6748 61.1034 29.1157 59.6804 29.1157 57.9311C29.1157 56.1818 27.675 54.7588 25.9038 54.7588ZM25.9038 58.9908C25.663 58.9908 25.2639 58.9921 24.8792 58.9938C24.8776 58.5959 24.8762 58.1798 24.8762 57.9311C24.8762 57.72 24.8754 57.2895 24.8746 56.8715H25.9038C26.4997 56.8715 27.0031 57.3567 27.0031 57.9311C27.0031 58.5054 26.4997 58.9908 25.9038 58.9908Z" fill="#2B4D66"/>
<path d="M44.3319 64.3692C41.6824 64.3692 39.5267 62.2135 39.5267 59.564C39.5267 56.9144 41.6824 54.7588 44.3319 54.7588C46.9813 54.7588 49.1368 56.9144 49.1368 59.564C49.1367 62.2135 46.9813 64.3692 44.3319 64.3692ZM44.3319 56.8715C42.8472 56.8715 41.6394 58.0794 41.6394 59.564C41.6394 61.0487 42.8472 62.2564 44.3319 62.2564C45.8163 62.2564 47.0241 61.0487 47.0241 59.564C47.0241 58.0794 45.8163 56.8715 44.3319 56.8715Z" fill="#2B4D66"/>
<path d="M50.9972 18.1636V21.582C50.9972 24.0805 48.9647 26.1157 46.4676 26.1157H36.6944C36.1112 26.1157 35.6381 25.6425 35.6381 25.0594C35.6381 24.4749 36.1112 24.0031 36.6944 24.0031H46.4676C47.7999 24.0031 48.8845 22.9158 48.8845 21.582V18.32H50.0972C50.4127 18.32 50.7155 18.265 50.9972 18.1636Z" fill="#375E7D"/>
</g>
<defs>
<clipPath id="clip0_110_344">
<rect width="70" height="70" fill="white"/>
</clipPath>
</defs>
</svg>
