<svg width="16" height="16" viewBox="0 0 16 16" fill="none" xmlns="http://www.w3.org/2000/svg">
<path d="M12.7334 9.43876C12.5263 9.6392 12.4311 9.92907 12.4783 10.2134L13.1894 14.1422C13.2494 14.4752 13.1086 14.8122 12.8294 15.0046C12.5559 15.2042 12.1919 15.2282 11.8935 15.0685L8.35081 13.2239C8.22762 13.1584 8.09084 13.1232 7.95086 13.1192H7.73409C7.6589 13.1304 7.58531 13.1544 7.51812 13.1911L3.97458 15.0445C3.7994 15.1324 3.60103 15.1635 3.40666 15.1324C2.93312 15.0429 2.61716 14.5926 2.69475 14.1174L3.40666 10.1886C3.45385 9.90192 3.35866 9.61045 3.15149 9.40682L0.263066 6.61193C0.0214978 6.37795 -0.0624912 6.0266 0.0478944 5.70957C0.15508 5.39335 0.428645 5.16257 0.759001 5.11067L4.73448 4.53492C5.03684 4.50378 5.30241 4.32011 5.43839 4.04861L7.19016 0.463154C7.23176 0.3833 7.28535 0.309834 7.35014 0.247548L7.42213 0.19165C7.45973 0.150126 7.50292 0.115789 7.55091 0.0878396L7.6381 0.0558979L7.77408 0H8.11084C8.4116 0.0311431 8.67637 0.210815 8.81475 0.479125L10.5897 4.04861C10.7177 4.30973 10.9665 4.491 11.2536 4.53492L15.2291 5.11067C15.5651 5.15858 15.8458 5.39016 15.957 5.70957C16.0618 6.02979 15.9714 6.38115 15.725 6.61193L12.7334 9.43876Z" fill="#FEB21D"/>
</svg>
